{"title":"Carnal Olympics (1983)","uid":5083443,"size":1013051362,"categoryP":"porn","categoryS":"movies","magnet":"?xt=urn:btih:00bf95b39f4dd79ff96b140dc2715cd528c5eb61&amp;dn=Carnal+Olympics+%281983%29&amp;tr=udp%3A%2F%2Ftracker.openbittorrent.com%3A80&amp;tr=udp%3A%2F%2Fopen.demonii.com%3A1337&amp;tr=udp%3A%2F%2Ftracker.coppersurfer.tk%3A6969&amp;tr=udp%3A%2F%2Fexodus.desync.com%3A6969","seeders":1,"leechers":0,"uploader":"gorgon99","files":1,"time":1252525851,"description":"&quot;An x-rated magazine sponsored a contest to determine who's the sexiest girl in San Francisco. After an exhaustive (and deep probing) search, an ace reporter sniffs out two sizzling strumpets who'll do anything for the $20,000 prize money in a no-holds barred Carnal Olympics. Event number one finds each team in a very hot girl-girl love making event (Judges: give these gals a 10 on technique alone). Event number two has each girl seducing an officer of the law in a hard-driving shoot out of a very personal nature. In the final and decisive even number three, a not-to-be-believed pool party turns into an orgy of truly Olympian proportions where everyone turns out to be a wild, wild winner.&quot;\n &lt;a href=&quot;\nhttp://www.adultfilmdatabase.com/video.cfm?videoid=8942&quot; rel=&quot;nofollow&quot; target=&quot;_NEW&quot;&gt;\nhttp://www.adultfilmdatabase.com/video.cfm?videoid=8942&lt;/a&gt;\n\nFormat : AVI \nFormat/Info : Audio Video Interleave \nFile size : 966 MiB \nDuration : 1h 22mn \nOverall bit rate : 1 631 Kbps \nWriting library : MPlayer \n\nVideo  Format : MPEG-4 Visual \nFormat profile : Simple@L1 \nFormat settings, BVOP : No \nFormat settings, QPel : No \nFormat settings, GMC : No warppoints \nFormat settings, Matrix : Default (H.263) \nCodec ID : DX50 \nCodec ID/Hint : DivX 5 \nDuration : 1h 22mn \nBit rate : 1 474 Kbps \nWidth : 640 pixels \nHeight : 480 pixels \nDisplay aspect ratio : 4/3 \nFrame rate : 23.976 fps \nResolution : 24 bits \nColorimetry : 4:2:0 \nScan type : Progressive \nBits/(Pixel*Frame) : 0.200 \nStream size : 873 MiB (90%) \nWriting library : Lavc51.20.0 \n\nAudio  Format : MPEG Audio \nFormat version : Version 1 \nFormat profile : Layer 3 \nCodec ID : 55 \nCodec ID/Hint : MP3 \nDuration : 1h 22mn \nBit rate mode : Variable \nBit rate : 145 Kbps \nChannel(s) : 1 channel \nSampling rate : 44.1 KHz \nResolution : 16 bits \nStream size : 86.0 MiB (9%) \nAlignment : Aligned on interleaves \nInterleave, duration : 26 ms (0.63 video frame) \nInterleave, preload duration : 540 ms \n\n","torrent":{"xt":"urn:btih:00bf95b39f4dd79ff96b140dc2715cd528c5eb61","amp;dn":"Carnal+Olympics+%281983%29","amp;tr":["udp%3A%2F%2Ftracker.openbittorrent.com%3A80","udp%3A%2F%2Fopen.demonii.com%3A1337","udp%3A%2F%2Ftracker.coppersurfer.tk%3A6969","udp%3A%2F%2Fexodus.desync.com%3A6969"],"infoHash":"00bf95b39f4dd79ff96b140dc2715cd528c5eb61","infoHashBuffer":{"type":"Buffer","data":[0,191,149,179,159,77,215,159,249,107,20,13,194,113,92,213,40,197,235,97]},"announce":[],"urlList":[]}}